# xmcd
#
# Track frame offsets:
#	150
#	9940
#	22247
#	34443
#	43914
#	56746
#	68406
#	80832
#	93109
#	106531
#
# Disc length: 1593 seconds
#
# Revision: 0
# Processed by: cddbd v1.5.2PL0 Copyright (c) Steve Scherf et al.
# Submitted via: dBpowerAMP V4.0
#
DISCID=7906370a
DTITLE=Merle Haggard - Number One Songs
DYEAR=1900
DGENRE=Country
TTITLE0=Mama Tried
TTITLE1=Workin' Man Blues
TTITLE2=Okie From Muskogee
TTITLE3=The Lengend Of Bonnie and Clyde
TTITLE4=Sing Me Back Home
TTITLE5=Carolyn
TTITLE6=If We Make It Through December
TTITLE7=The Roots Of My Raising
TTITLE8=Cherokee Maiden
TTITLE9=Kentucky Gamber
EXTD=
EXTT0=
EXTT1=
EXTT2=
EXTT3=
EXTT4=
EXTT5=
EXTT6=
EXTT7=
EXTT8=
EXTT9=
PLAYORDER=
